<svg width="200.00000000000003" height="200.00000000000003" xmlns="http://www.w3.org/2000/svg">
 <!-- Created with Method Draw - http://github.com/duopixel/Method-Draw/ -->
 <g>
  <title>background</title>
  <rect fill="#6c849b" id="canvas_background" height="202" width="202" y="-1" x="-1"/>
  <g display="none" overflow="visible" y="0" x="0" height="100%" width="100%" id="canvasGrid">
   <rect fill="url(#gridpattern)" stroke-width="0" y="0" x="0" height="100%" width="100%"/>
  </g>
 </g>
 <g>
  <title>Layer 1</title>
  <line stroke-linecap="undefined" stroke-linejoin="undefined" id="svg_1" y2="200" x2="15.769413" y1="0" x1="15.96217" stroke-width="1.5" stroke="#34495e" fill="none"/>
  <line stroke-linecap="undefined" stroke-linejoin="undefined" id="svg_3" y2="200" x2="141.922314" y1="0" x1="142.115071" stroke-width="1.5" stroke="#34495e" fill="none"/>
  <line stroke-linecap="undefined" stroke-linejoin="undefined" id="svg_4" y2="200" x2="58.076786" y1="0" x1="58.269543" stroke-width="1.5" stroke="#34495e" fill="none"/>
  <line stroke="#34495e" transform="rotate(90 97.40373229980467,173.30725097656253) " stroke-linecap="undefined" stroke-linejoin="undefined" id="svg_5" y2="276.153364" x2="97.30736" y1="70.461121" x1="97.500117" stroke-width="1.5" fill="none"/>
  <line stroke="#34495e" transform="rotate(90 98.36526489257811,166.76882934570315) " stroke-linecap="undefined" stroke-linejoin="undefined" id="svg_6" y2="268.653418" x2="98.268892" y1="64.884242" x1="98.461649" stroke-width="1.5" fill="none"/>
  <line stroke="#34495e" transform="rotate(90 100.2882614135742,134.07673645019534) " stroke-linecap="undefined" stroke-linejoin="undefined" id="svg_7" y2="234.422872" x2="100.191877" y1="33.730595" x1="100.384634" stroke-width="1.5" fill="none"/>
  <line stroke="#34495e" transform="rotate(90 104.71139526367188,69.46188354492189) " stroke-linecap="undefined" stroke-linejoin="undefined" id="svg_8" y2="183.846396" x2="104.615013" y1="-44.922609" x1="104.80777" stroke-width="1.5" fill="none"/>
  <text stroke="#000000" transform="matrix(3.964516151467857,0,0,3.816010139757601,-331.24717560468525,-311.8201071130893) " xml:space="preserve" text-anchor="start" font-family="'Courier New', Courier, monospace" font-size="24" id="svg_9" y="113.087767" x="86.45587" stroke-width="0" fill="#ffffff">300</text>
 </g>
</svg>